# xmcd
#
# Track frame offsets:
# 150
# 20244
# 38340
# 60172
# 82660
# 100745
# 124120
# 141202
# 159992
# 173437
# 193652
# 206470
#
# Disc length: 3112 seconds
#
#
# Revision: 0
# Processed by: cddbd v1.5.1PL0 Copyright (c) Steve Scherf et al.
# Submitted via: FreeRIP 2.90 
#
DISCID=880c260c
DTITLE=Luiz Carlos Borges e Mauro Ferreira - Campeiros
DYEAR=1900
DGENRE=gaucha
TTITLE0=Coração de Gaiteiro
TTITLE1=Missioneira
TTITLE2=Há Muito Tempo é Assim
TTITLE3=Cavalo Crioulo
TTITLE4=Milongão de Laçar Touro
TTITLE5=Montado na Saudade
TTITLE6=Baile de Fronteira
TTITLE7=Na Garupa do Baião
TTITLE8=Romance do Gaguinho
TTITLE9=Caçapavana
TTITLE10=Peão do meu Bagé
TTITLE11=Florêncio Guerra
EXTD=
EXTT0=
EXTT1=
EXTT2=
EXTT3=
EXTT4=
EXTT5=
EXTT6=
EXTT7=
EXTT8=
EXTT9=
EXTT10=
EXTT11=
PLAYORDER=
